<svg xmlns="http://www.w3.org/2000/svg" width="305" height="305" viewBox="0 0 305.00000000000006 305.00000000000006"><defs><clipPath id="b"><path d="M0 25h280v280H0z"/></clipPath><clipPath id="a"><path transform="rotate(90 140.75 26.05)" d="M0 25h280v280H0z"/></clipPath><clipPath id="c"><path d="M0 25h280v280H0z"/></clipPath></defs><path fill="none" stroke="#000" d="M18.26 305V25M42.609 305V25M66.957 305V25M91.304 305V25M115.652 305V25M140 305V25M164.348 305V25M188.696 305V25M213.043 305V25M237.391 305V25M261.739 305V25M0 286.739h280M0 262.391h280M0 238.043h280M0 213.696h280M0 189.348h280M0 165h280M0 140.652h280M0 116.304h280M0 91.957h280M0 67.609h280M0 43.26h280" stroke-width="2" opacity=".1"/><path fill="none" stroke="#000" d="M164.348 194.348v-10M188.696 194.348v-10M213.043 194.348v-10M237.391 194.348v-10M261.739 194.348v-10M115.652 194.348v-10M91.304 194.348v-10M66.957 194.348v-10M42.609 194.348v-10M18.26 194.348v-10M135 165h10M135 140.652h10M135 116.304h10M135 91.957h10M135 67.609h10M135 43.26h10M135 213.696h10M135 238.043h10M135 262.391h10M135 286.739h10"/><path fill="none" stroke="#000" d="M135.5 31.65c.35-2.1 4.2-5.25 5.25-5.6-1.05-.35-4.9-3.5-5.25-5.6" transform="rotate(-90 140.75 26.05)" stroke-width="2" clip-path="url(#a)" stroke-linejoin="round" stroke-linecap="round"/><path fill="none" stroke="#000" d="M140 305V26.05" stroke-width="2" clip-path="url(#b)"/><path fill="none" stroke="#000" d="M274.45 194.948c.35-2.1 4.2-5.25 5.25-5.6-1.05-.35-4.9-3.5-5.25-5.6" stroke-width="2" clip-path="url(#c)" stroke-linejoin="round" stroke-linecap="round"/><path fill="none" stroke="#000" d="M0 189.348h278.95M0-236.739l.5 1 .5 1 .5 1 .5 1 .5 1 .5 1 .5 1 .5 1 .5 1 .5 1 .5 1 .5 1 .5 1 .5 1 .5 1 .5 1 .5 1 .5 1 .5 1 .5 1 .5 1 .5 1 .5 1 .5 1 .5 1 .5 1 .5 1 .5 1 .5 1 .5 1 .5 1 .5 1 .5 1 .5 1 .5 1 .5 1 .5 1 .5 1 .5 1 .5 1 .5 1 .5 1 .5 1 .5 1 .5 1 .5 1 .5 1 .5 1 .5 1 .5 1 .5 1 .5 1 .5 1 .5 1 .5 1 .5 1 .5 1 .5 1 .5 1 .5 1 .5 1 .5 1 .5 1 .5 1 .5 1 .5 1 .5 1 .5 1 .5 1 .5 1 .5 1 .5 1 .5 1 .5 1 .5 1 .5 1 .5 1 .5 1 .5 1 .5 1 .5 1 .5 1 .5 1 .5 1 .5 1 .5 1 .5 1 .5 1 .5 1 .5 1 .5 1 .5 1 .5 1 .5 1 .5 1 .5 1 .5 1 .5 1 .5 1 .5 1 .5 1 .5 1 .5 1 .5 1 .5 1 .5 1 .5 1 .5 1 .5 1 .5 1 .5 1 .5 1 .5 1 .5 1 .5 1 .5 1 .5 1 .5 1 .5 1 .5 1 .5 1 .5 1 .5 1 .5 1 .5 1 .5 1 .5 1 .5 1 .5 1 .5 1 .5 1 .5 1 .5 1 .5 1 .5 1 .5 1 .5 1 .5 1 .5 1 .5 1 .5 1 .5 1 .5 1 .5 1 .5 1 .5 1 .5 1 .5 1 .5 1 .5 1 .5 1 .5 1 .5 1 .5 1 .5 1 .5 1 .5 1 .5 1 .5 1 .5 1 .5 1 .5 1 .5 1 .5 1 .5 1 .5 1 .5 1 .5 1 .5 1 .5 1 .5 1 .5 1 .5 1 .5 1 .5 1 .5 1 .5 1 .5 1 .5 1 .5 1 .5 1 .5 1 .5 1 .5 1 .5 1 .5 1 .5 1 .5 1 .5 1 .5 1 .5 1 .5 1 .5 1 .5 1 .5 1 .5 1 .5 1 .5 1 .5 1 .5 1 .5 1 .5 1 .5 1 .5 1 .5 1 .5 1 .5 1 .5 1 .5 1 .5 1 .5 1 .5 1 .5 1 .5 1 .5 1 .5 1 .5 1 .5 1 .5 1 .5 1 .5 1 .5 1 .5 1 .5 1 .5 1 .5 1 .5 1 .5 1 .5 1 .5 1 .5 1 .5 1 .5 1 .5 1 .5 1 .5 1 .5 1 .5 1 .5 1 .5 1 .5 1 .5 1 .5 1 .5 1 .5 1 .5 1 .5 1 .5 1 .5 1 .5 1 .5 1 .5 1 .5 1 .5 1 .5 1 .5 1 .5 1 .5 1 .5 1 .5 1 .5 1 .5 1 .5 1 .5 1 .5 1 .5 1 .5 1 .5 1 .5 1 .5 1 .5 1 .5 1 .5 1 .5 1 .5 1 .5 1 .5 1 .5 1 .5 1 .5 1 .5 1 .5 1 .5 1 .5 1 .5 1 .5 1 .5 1 .5 1 .5 1 .5 1 .5 1 .5 1 .5 1 .5 1 .5 1 .5 1 .5 1 .5 1 .5 1 .5 1 .5 1 .5 1 .5 1 .5 1 .5 1 .5 1 .5 1 .5 1 .5 1 .5 1 .5 1 .5 1 .5 1 .5 1 .5 1 .5 1 .5 1 .5 1 .5 1 .5 1 .5 1 .5 1 .5 1 .5 1 .5 1 .5 1 .5 1 .5 1 .5 1 .5 1 .5 1 .5 1 .5 1 .5 1 .5 1 .5 1 .5 1 .5 1 .5 1 .5 1 .5 1 .5 1 .5 1 .5 1 .5 1 .5 1 .5 1 .5 1 .5 1 .5 1 .5 1 .5 1 .5 1 .5 1 .5 1 .5 1 .5 1 .5 1 .5 1 .5 1 .5 1 .5 1 .5 1 .5 1 .5 1 .5 1 .5 1 .5 1 .5 1 .5 1 .5 1 .5 1 .5 1 .5 1 .5 1 .5 1 .5 1 .5 1 .5 1 .5 1 .5 1 .5 1 .5 1 .5 1 .5 1 .5 1 .5 1 .5 1 .5 1 .5 1 .5 1 .5 1 .5 1 .5 1 .5 1 .5 1 .5 1 .5 1 .5 1 .5 1 .5 1 .5 1 .5 1 .5 1 .5 1 .5 1 .5 1 .5 1 .5 1 .5 1 .5 1 .5 1 .5 1 .5 1 .5 1 .5 1 .5 1 .5 1 .5 1 .5 1 .5 1 .5 1 .5 1 .5 1 .5 1 .5 1 .5 1 .5 1 .5 1 .5 1 .5 1 .5 1 .5 1 .5 1 .5 1 .5 1 .5 1 .5 1 .5 1 .5 1 .5 1 .5 1 .5 1 .5 1 .5 1 .5 1 .5 1 .5 1 .5 1 .5 1 .5 1 .5 1 .5 1 .5 1 .5 1 .5 1 .5 1 .5 1 .5 1 .5 1 .5 1 .5 1 .5 1 .5 1 .5 1 .5 1 .5 1 .5 1 .5 1 .5 1 .5 1 .5 1 .5 1 .5 1 .5 1 .5 1 .5 1 .5 1 .5 1 .5 1 .5 1 .5 1 .5 1 .5 1 .5 1 .5 1 .5 1 .5 1 .5 1 .5 1 .5 1 .5 1 .5 1 .5 1 .5 1 .5 1 .5 1 .5 1 .5 1 .5 1 .5 1 .5 1 .5 1 .5 1 .5 1 .5 1 .5 1 .5 1 .5 1 .5 1 .5 1 .5 1 .5 1 .5 1 .5 1 .5 1 .5 1 .5 1 .5 1 .5 1 .5 1 .5 1 .5 1 .5 1 .5 1 .5 1 .5 1 .5 1 .5 1 .5 1 .5 1 .5 1 .5 1 .5 1 .5 1 .5 1 .5 1 .5 1 .5 1 .5 1 .5 1 .5 1 .5 1 .5 1 .5 1 .5 1 .5 1 .5 1 .5 1 .5 1 .5 1 .5 1 .5 1 .5 1 .5 1 .5 1 .5 1 .5 1 .5 1 .5 1" stroke-width="2" clip-path="url(#b)"/></svg>
