<?xml version="1.0" encoding="iso-8859-1"?>
<!-- Generator: Adobe Illustrator 21.0.0, SVG Export Plug-In . SVG Version: 6.00 Build 0)  -->
<svg xmlns="http://www.w3.org/2000/svg" xmlns:xlink="http://www.w3.org/1999/xlink" version="1.1" id="Capa_1" x="0px" y="0px" viewBox="0 0 512 512" style="enable-background:new 0 0 512 512;" xml:space="preserve" width="512" height="512">
<g>
	<g>
		<g>
			<g>
				<g>
					<g>
						<g>
							<g>
								<g>
									<g>
										<g>
											<g>
												<circle style="fill:#FFBEAA;" cx="256" cy="256" r="256"/>
											</g>
										</g>
									</g>
								</g>
							</g>
						</g>
					</g>
				</g>
			</g>
		</g>
	</g>
	<path style="fill:#FAA68E;" d="M512,256c0-19.597-2.21-38.676-6.38-57.01L411,104.37l-14.279,48.199l-48.199-48.199   L110.034,416.354l89.351,89.351C217.598,509.818,236.543,512,256,512C397.385,512,512,397.385,512,256z"/>
	<g>
		<polygon style="fill:#FFFFFF;" points="162.531,104.37 110.034,156.867 110.034,416.354 348.522,416.354 348.522,104.37   "/>
	</g>
	<g>
		<rect x="227.929" y="104.37" style="fill:#E9EDF5;" width="120.593" height="311.984"/>
	</g>
	<g>
		<polygon style="fill:#E9EDF5;" points="162.531,156.867 162.531,104.37 110.034,156.867   "/>
	</g>
	<g>
		<rect x="136.282" y="187.667" style="fill:#555A66;" width="186.718" height="30.667"/>
	</g>
	<g>
		<rect x="227.929" y="187.667" style="fill:#414952;" width="95.071" height="30.667"/>
	</g>
	<g>
		<rect x="136.282" y="249.133" style="fill:#555A66;" width="186.718" height="30.667"/>
	</g>
	<g>
		<rect x="227.929" y="249.133" style="fill:#414952;" width="95.071" height="30.667"/>
	</g>
	<g>
		<rect x="136.282" y="310.599" style="fill:#555A66;" width="186.718" height="30.667"/>
	</g>
	<g>
		<rect x="227.929" y="310.599" style="fill:#414952;" width="95.071" height="30.667"/>
	</g>
	<g>
		<rect x="365" y="104.37" style="fill:#555A66;" width="46" height="254.63"/>
	</g>
	<g>
		<rect x="388" y="104.37" style="fill:#414952;" width="23" height="254.63"/>
	</g>
	<g>
		<polygon style="fill:#FFFFFF;" points="411,359 388,395 365,359   "/>
	</g>
	<g>
		<polygon style="fill:#E9EDF5;" points="388,359 388,395 411,359   "/>
	</g>
	<g>
		<polygon style="fill:#555A66;" points="399.5,377 376.5,377 388,395   "/>
	</g>
	<g>
		<polygon style="fill:#414952;" points="388,377 388,395 399.5,377   "/>
	</g>
</g>















</svg>
